<svg width="460" height="923" viewBox="0 0 460 923" fill="none" xmlns="http://www.w3.org/2000/svg">
<mask id="mask0_43_7819" style="mask-type:alpha" maskUnits="userSpaceOnUse" x="-290" y="0" width="750" height="923">
<rect x="-290" width="750" height="923" fill="#C4C4C4"/>
</mask>
<g mask="url(#mask0_43_7819)">
<g opacity="0.24" clip-path="url(#clip0_43_7819)" filter="url(#filter0_f_43_7819)">
<path d="M113.486 622.819L169.018 636.771V664.41L113.486 678.229L57.9531 664.41V636.771L113.486 622.819Z" fill="#3D531B"/>
<path d="M57.9531 636.771L113.486 650.591L169.018 636.771L113.486 622.819L57.9531 636.771Z" fill="#3D531B"/>
<path d="M113.484 650.591V678.229L169.017 664.41V636.771L113.484 650.591Z" fill="#3D531B"/>
<path d="M-52.8056 609L2.72691 622.819V650.59L-52.8056 664.41L-108.031 650.59V622.819L-52.8056 609Z" fill="#3D531B"/>
<path d="M-108.031 622.819L-52.8056 636.771L2.72691 622.819L-52.8056 609L-108.031 622.819Z" fill="#3D531B"/>
<path d="M-52.8086 636.771V664.41L2.72387 650.591V622.819L-52.8086 636.771Z" fill="#3D531B"/>
<path d="M2.72388 622.819L57.9495 636.771V664.41L2.72388 678.229L-52.8086 664.41V636.771L2.72388 622.819Z" fill="#3D531B"/>
<path d="M-52.8086 636.771L2.72388 650.591L57.9495 636.771L2.72388 622.819L-52.8086 636.771Z" fill="#3D531B"/>
<path d="M2.72656 650.591V678.229L57.9522 664.41V636.771L2.72656 650.591Z" fill="#3D531B"/>
<path d="M279.775 664.409L335 678.228V706L279.775 719.819L224.242 706V678.228L279.775 664.409Z" fill="#3D531B"/>
<path d="M224.242 678.228L279.775 692.18L335 678.228L279.775 664.409L224.242 678.228Z" fill="#3D531B"/>
<path d="M279.773 692.181V719.819L334.999 706V678.229L279.773 692.181Z" fill="#3D531B"/>
<path d="M113.486 650.591L169.018 664.41V692.181L113.486 706L57.9531 692.181V664.41L113.486 650.591Z" fill="#3D531B"/>
<path d="M57.9531 664.41L113.486 678.229L169.018 664.41L113.486 650.591L57.9531 664.41Z" fill="#3D531B"/>
<path d="M113.484 678.228V706L169.017 692.18V664.409L113.484 678.228Z" fill="#3D531B"/>
<path d="M169.017 664.409L224.243 678.228V706L169.017 719.819L113.484 706V678.228L169.017 664.409Z" fill="#3D531B"/>
<path d="M113.484 678.228L169.017 692.18L224.243 678.228L169.017 664.409L113.484 678.228Z" fill="#3D531B"/>
<path d="M169.016 692.181V719.819L224.241 706V678.229L169.016 692.181Z" fill="#3D531B"/>
<path d="M113.486 678.229L169.018 692.181V719.819L113.486 733.638L57.9531 719.819V692.181L113.486 678.229Z" fill="#3D531B"/>
<path d="M57.9531 692.181L113.486 706L169.018 692.181L113.486 678.229L57.9531 692.181Z" fill="#3D531B"/>
<path d="M113.484 706V733.638L169.017 719.819V692.181L113.484 706Z" fill="#3D531B"/>
<path d="M113.486 706L169.018 719.819V747.59L113.486 761.41L57.9531 747.59V719.819L113.486 706Z" fill="#3D531B"/>
<path d="M57.9531 719.819L113.486 733.638L169.018 719.819L113.486 706L57.9531 719.819Z" fill="#3D531B"/>
<path d="M113.484 733.639V761.41L169.017 747.591V719.819L113.484 733.639Z" fill="#3D531B"/>
<path d="M2.72388 632.12L57.9495 645.939V673.711L2.72388 687.53L-52.8086 673.711V645.939L2.72388 632.12Z" fill="#3D531B"/>
<path d="M-52.8086 645.939L2.72388 659.758L57.9495 645.939L2.72388 632.12L-52.8086 645.939Z" fill="#3D531B"/>
<path d="M2.72656 659.759V687.53L57.9522 673.711V645.939L2.72656 659.759Z" fill="#3D531B"/>
<path d="M3.03242 659.759L58.2581 673.711V701.349L3.03242 715.168L-52.5 701.349V673.711L3.03242 659.759Z" fill="#3D531B"/>
<path d="M-52.5 673.711L3.03242 687.53L58.2581 673.711L3.03242 659.759L-52.5 673.711Z" fill="#3D531B"/>
<path d="M3.03125 687.53V715.168L58.2569 701.349V673.711L3.03125 687.53Z" fill="#3D531B"/>
<path d="M2.72388 706L57.9495 719.819V747.59L2.72388 761.41L-52.8086 747.59V719.819L2.72388 706Z" fill="#3D531B"/>
<path d="M-52.8086 719.819L2.72388 733.638L57.9495 719.819L2.72388 706L-52.8086 719.819Z" fill="#3D531B"/>
<path d="M2.72656 733.639V761.41L57.9522 747.591V719.819L2.72656 733.639Z" fill="#3D531B"/>
<path d="M-52.8056 719.819L2.72691 733.639V761.41L-52.8056 775.229L-108.031 761.41V733.639L-52.8056 719.819Z" fill="#3D531B"/>
<path d="M-108.031 733.639L-52.8056 747.591L2.72691 733.639L-52.8056 719.819L-108.031 733.639Z" fill="#3D531B"/>
<path d="M-52.8086 747.591V775.229L2.72387 761.41V733.639L-52.8086 747.591Z" fill="#3D531B"/>
<path d="M-52.8056 747.591L2.72691 761.41V789.048L-52.8056 803L-108.031 789.048V761.41L-52.8056 747.591Z" fill="#3D531B"/>
<path d="M-108.031 761.41L-52.8056 775.229L2.72691 761.41L-52.8056 747.591L-108.031 761.41Z" fill="#3D531B"/>
<path d="M-52.8086 775.228V803L2.72387 789.048V761.409L-52.8086 775.228Z" fill="#3D531B"/>
<g clip-path="url(#clip1_43_7819)">
<path d="M130.001 699.562C130.001 696.704 124.522 694.308 117.989 694.308C111.456 694.308 105.977 696.704 105.977 699.562C105.977 702.42 111.456 704.816 117.989 704.816C124.733 704.816 130.001 702.42 130.001 699.562Z" fill="#3D531B"/>
<path d="M124.521 695.138C125.153 696.705 124.942 698.456 123.256 700.023C121.36 702.051 117.566 703.526 113.141 704.356C114.616 704.632 116.302 704.817 117.988 704.817C124.521 704.817 130 702.42 130 699.562C130 697.719 127.893 696.06 124.521 695.138Z" fill="#3D531B"/>
<path d="M121.148 702.419C121.148 698.271 113.351 694.86 103.867 694.86C94.3837 694.86 86.7969 698.271 86.7969 702.419C86.7969 706.567 94.5944 709.978 104.078 709.978C113.561 709.978 121.148 706.659 121.148 702.419Z" fill="#3D531B"/>
<path d="M113.352 696.151C114.406 698.456 113.985 700.853 111.666 703.157C108.927 706.015 103.658 708.227 97.125 709.333C99.2324 709.702 101.551 709.978 104.08 709.978C113.563 709.978 121.361 706.568 121.361 702.42C121.15 699.839 117.989 697.442 113.352 696.151Z" fill="#3D531B"/>
<path d="M103.025 707.674C103.025 704.817 97.5455 702.42 91.0124 702.42C84.4793 702.42 79 704.817 79 707.674C79 710.532 84.4793 712.929 91.0124 712.929C97.5455 712.929 103.025 710.624 103.025 707.674Z" fill="#3D531B"/>
<path d="M97.5442 703.249C98.1765 704.816 97.9657 706.568 96.2798 708.135C94.3831 710.163 90.5897 711.637 86.1641 712.467C87.6393 712.744 89.3252 712.928 91.0112 712.928C97.5442 712.928 103.024 710.531 103.024 707.674C103.024 705.83 100.705 704.263 97.5442 703.249Z" fill="#3D531B"/>
</g>
</g>
<path d="M114.486 304.912L170.018 337.131V400.956L114.486 432.868L58.9531 400.956V337.131L114.486 304.912Z" fill="#A2CC5C"/>
<path d="M58.9531 337.131L114.486 369.044L170.018 337.131L114.486 304.912L58.9531 337.131Z" fill="#C2DA6B"/>
<path d="M114.484 369.044V432.869L170.017 400.956V337.132L114.484 369.044Z" fill="#7EBA4C"/>
<path d="M-51.8056 273L3.72691 304.912V369.044L-51.8056 400.956L-107.031 369.044V304.912L-51.8056 273Z" fill="#A2CC5C"/>
<path d="M-107.031 304.912L-51.8056 337.132L3.72691 304.912L-51.8056 273L-107.031 304.912Z" fill="#C2DA6B"/>
<path d="M-51.8086 337.131V400.956L3.72387 369.044V304.912L-51.8086 337.131Z" fill="#7EBA4C"/>
<path d="M3.72388 304.912L58.9495 337.131V400.956L3.72388 432.868L-51.8086 400.956V337.131L3.72388 304.912Z" fill="#A2CC5C"/>
<path d="M-51.8086 337.131L3.72388 369.044L58.9495 337.131L3.72388 304.912L-51.8086 337.131Z" fill="#C2DA6B"/>
<path d="M3.72656 369.044V432.869L58.9522 400.956V337.132L3.72656 369.044Z" fill="#7EBA4C"/>
<path d="M280.775 400.956L336 432.868V497L280.775 528.912L225.242 497V432.868L280.775 400.956Z" fill="#A2CC5C"/>
<path d="M225.242 432.868L280.775 465.088L336 432.868L280.775 400.956L225.242 432.868Z" fill="#C2DA6B"/>
<path d="M280.773 465.087V528.912L335.999 497V432.868L280.773 465.087Z" fill="#7EBA4C"/>
<path d="M114.486 369.044L170.018 400.956V465.088L114.486 497L58.9531 465.088V400.956L114.486 369.044Z" fill="#A2CC5C"/>
<path d="M58.9531 400.956L114.486 432.869L170.018 400.956L114.486 369.044L58.9531 400.956Z" fill="#C2DA6B"/>
<path d="M114.484 432.868V497L170.017 465.088V400.956L114.484 432.868Z" fill="#7EBA4C"/>
<path d="M170.017 400.956L225.243 432.868V497L170.017 528.912L114.484 497V432.868L170.017 400.956Z" fill="#A2CC5C"/>
<path d="M114.484 432.868L170.017 465.088L225.243 432.868L170.017 400.956L114.484 432.868Z" fill="#C2DA6B"/>
<path d="M170.016 465.087V528.912L225.241 497V432.868L170.016 465.087Z" fill="#7EBA4C"/>
<path d="M114.486 432.868L170.018 465.087V528.912L114.486 560.824L58.9531 528.912V465.087L114.486 432.868Z" fill="#A2CC5C"/>
<path d="M58.9531 465.087L114.486 497L170.018 465.087L114.486 432.868L58.9531 465.087Z" fill="#C2DA6B"/>
<path d="M114.484 497V560.825L170.017 528.913V465.088L114.484 497Z" fill="#7EBA4C"/>
<path d="M114.486 497L170.018 528.912V593.044L114.486 624.956L58.9531 593.044V528.912L114.486 497Z" fill="#A2CC5C"/>
<path d="M58.9531 528.912L114.486 560.825L170.018 528.912L114.486 497L58.9531 528.912Z" fill="#C2DA6B"/>
<path d="M114.484 560.824V624.956L170.017 593.044V528.912L114.484 560.824Z" fill="#7EBA4C"/>
<path d="M3.72388 326.392L58.9495 358.304V422.435L3.72388 454.348L-51.8086 422.435V358.304L3.72388 326.392Z" fill="#A2CC5C"/>
<path d="M-51.8086 358.304L3.72388 390.216L58.9495 358.304L3.72388 326.392L-51.8086 358.304Z" fill="#D8E267"/>
<path d="M3.72656 390.217V454.349L58.9522 422.436V358.305L3.72656 390.217Z" fill="#7EBA4C"/>
<path d="M4.03242 390.217L59.2581 422.436V486.261L4.03242 518.173L-51.5 486.261V422.436L4.03242 390.217Z" fill="#A2CC5C"/>
<path d="M-51.5 422.436L4.03242 454.348L59.2581 422.436L4.03242 390.217L-51.5 422.436Z" fill="#D8E267"/>
<path d="M4.03125 454.348V518.173L59.2569 486.26V422.436L4.03125 454.348Z" fill="#7EBA4C"/>
<path d="M3.72388 497L58.9495 528.912V593.044L3.72388 624.956L-51.8086 593.044V528.912L3.72388 497Z" fill="#A2CC5C"/>
<path d="M-51.8086 528.912L3.72388 560.825L58.9495 528.912L3.72388 497L-51.8086 528.912Z" fill="#C2DA6B"/>
<path d="M3.72656 560.824V624.956L58.9522 593.044V528.912L3.72656 560.824Z" fill="#7EBA4C"/>
<path d="M-51.8056 528.912L3.72691 560.824V624.956L-51.8056 656.868L-107.031 624.956V560.824L-51.8056 528.912Z" fill="#A2CC5C"/>
<path d="M-107.031 560.824L-51.8056 593.044L3.72691 560.824L-51.8056 528.912L-107.031 560.824Z" fill="#C2DA6B"/>
<path d="M-51.8086 593.043V656.868L3.72387 624.956V560.824L-51.8086 593.043Z" fill="#7EBA4C"/>
<path d="M-51.8056 593.044L3.72691 624.956V688.781L-51.8056 721L-107.031 688.781V624.956L-51.8056 593.044Z" fill="#A2CC5C"/>
<path d="M-107.031 624.956L-51.8056 656.869L3.72691 624.956L-51.8056 593.044L-107.031 624.956Z" fill="#C2DA6B"/>
<path d="M-51.8086 656.868V721L3.72387 688.781V624.956L-51.8086 656.868Z" fill="#7EBA4C"/>
<g clip-path="url(#clip2_43_7819)">
<path d="M116.001 396.134C116.001 389.535 110.522 384 103.989 384C97.4559 384 91.9766 389.535 91.9766 396.134C91.9766 402.733 97.4559 408.267 103.989 408.267C110.733 408.267 116.001 402.733 116.001 396.134Z" fill="white"/>
<path d="M110.521 385.916C111.153 389.535 110.942 393.579 109.256 397.198C107.36 401.881 103.566 405.287 99.1406 407.203C100.616 407.842 102.302 408.267 103.988 408.267C110.521 408.267 116 402.733 116 396.134C116 391.876 113.893 388.045 110.521 385.916Z" fill="#E6E7E8"/>
<path d="M107.148 402.733C107.148 393.154 99.3506 385.277 89.8671 385.277C80.3837 385.277 72.7969 393.154 72.7969 402.733C72.7969 412.312 80.5944 420.188 90.0779 420.188C99.5613 420.188 107.148 412.525 107.148 402.733Z" fill="white"/>
<path d="M99.3523 388.258C100.406 393.58 99.9845 399.114 97.6663 404.436C94.9267 411.035 89.6581 416.144 83.125 418.698C85.2324 419.55 87.5506 420.189 90.0795 420.189C99.563 420.189 107.361 412.312 107.361 402.733C107.15 396.773 103.989 391.238 99.3523 388.258Z" fill="#E6E7E8"/>
<path d="M89.0248 414.866C89.0248 408.267 83.5455 402.732 77.0124 402.732C70.4793 402.732 65 408.267 65 414.866C65 421.465 70.4793 427 77.0124 427C83.5455 427 89.0248 421.678 89.0248 414.866Z" fill="white"/>
<path d="M83.5442 404.648C84.1765 408.267 83.9657 412.312 82.2798 415.931C80.3831 420.614 76.5897 424.02 72.1641 425.936C73.6393 426.574 75.3252 427 77.0112 427C83.5442 427 89.0236 421.465 89.0236 414.866C89.0236 410.609 86.7054 406.99 83.5442 404.648Z" fill="#E6E7E8"/>
</g>
<g clip-path="url(#clip3_43_7819)">
<path d="M116.338 280L149 299V337L116.338 356L84 337V299L116.338 280Z" fill="#A2CC5C"/>
<path d="M84 299L116.338 318L149 299L116.338 280L84 299Z" fill="#C2DA6B"/>
<path d="M116.34 318V356L149.002 337V299L116.34 318Z" fill="#7EBA4C"/>
</g>
<g clip-path="url(#clip4_43_7819)">
<path d="M280.338 373L313 392V430L280.338 449L248 430V392L280.338 373Z" fill="#A2CC5C"/>
<path d="M248 392L280.338 411L313 392L280.338 373L248 392Z" fill="#C2DA6B"/>
<path d="M280.34 411V449L313.002 430V392L280.34 411Z" fill="#7EBA4C"/>
</g>
<g clip-path="url(#clip5_43_7819)">
<path d="M269.301 390.058C269.301 386.789 274.229 384.115 280.502 384.115C286.775 384.115 291.703 386.789 291.703 390.058C291.703 393.326 286.775 396 280.502 396C274.229 396 269.301 393.326 269.301 390.058Z" fill="#7EBA4C"/>
<path d="M270.345 385.898C270.345 382.927 274.974 380.55 280.5 380.55C286.176 380.55 290.656 382.927 290.656 385.898C290.656 388.869 286.026 391.246 280.5 391.246C274.825 391.246 270.345 388.869 270.345 385.898Z" fill="#C2DA6B"/>
<path d="M280.203 386.046H280.8C281.547 386.046 282.145 385.452 282.145 384.709V365.397C282.145 364.654 281.547 364.06 280.8 364.06H280.203C279.456 364.06 278.859 364.654 278.859 365.397V384.709C279.008 385.601 279.456 386.046 280.203 386.046Z" fill="#0F0F0F"/>
<path d="M269 368.962C269 365.545 274.078 362.871 280.5 362.871C286.773 362.871 292 365.545 292 368.962C292 372.23 286.922 375.053 280.5 375.053C274.227 375.053 269 372.23 269 368.962Z" fill="#C2DA6B"/>
<path d="M280.502 348.312L269.301 367.625H291.703L280.502 348.312Z" fill="#C2DA6B"/>
<path d="M281.247 364.803C277.962 364.803 274.825 364.357 272.585 361.98L280.501 348.312L288.715 362.426C286.923 364.357 283.488 364.803 281.247 364.803Z" fill="#7EBA4C"/>
<path d="M270.194 356.186C270.194 353.215 274.824 350.689 280.499 350.689C286.175 350.689 290.805 353.215 290.805 356.186C290.805 359.157 286.175 361.683 280.499 361.683C274.824 361.683 270.194 359.306 270.194 356.186Z" fill="#C2DA6B"/>
<path d="M280.5 337.616L270.494 354.998H290.656L280.5 337.616Z" fill="#C2DA6B"/>
<path d="M281.099 352.472C278.112 352.472 275.274 352.026 273.332 349.947L280.501 337.616L287.969 350.392C286.326 352.026 283.19 352.472 281.099 352.472Z" fill="#7EBA4C"/>
<path d="M271.539 345.044C271.539 342.37 275.571 340.29 280.5 340.29C285.428 340.29 289.461 342.37 289.461 345.044C289.461 347.718 285.428 349.798 280.5 349.798C275.571 349.798 271.539 347.718 271.539 345.044Z" fill="#C2DA6B"/>
<path d="M280.502 329L271.839 344.004H289.164L280.502 329Z" fill="#C2DA6B"/>
</g>
<g clip-path="url(#clip6_43_7819)">
<path d="M131.799 530.2C131.399 529 131.199 527.8 130.799 526.6C130.599 525.8 130.199 525.6 129.599 525.6C128.599 525.6 127.599 525.6 126.599 525.6C126.399 524 126.199 523.8 124.599 523.6V522.2C119.799 524.2 114.399 523.8 109.199 522.8V523.4C107.599 523.8 107.399 523.8 107.199 525.4C106.599 525.4 105.999 525.4 105.399 525.4C104.599 525.4 104.199 525.8 103.999 526.6C103.799 528 103.399 529.2 103.199 530.6C102.999 531.6 103.399 532.2 104.199 532.2C104.399 532.2 104.599 532.2 104.799 532.2C113.199 532.2 121.799 532.2 130.199 532.2C131.999 532.4 132.399 531.8 131.799 530.2Z" fill="black"/>
<path d="M132.001 532.4C132.001 528.2 125.401 524.6 117.401 524.6C109.401 524.6 102.801 528 102.801 532.4C102.801 536.6 109.401 540.2 117.401 540.2C125.601 540 132.001 536.6 132.001 532.4Z" fill="black"/>
<path d="M130.798 526.8C130.798 523 124.798 519.8 117.598 519.8C110.198 519.8 104.398 523 104.398 526.8C104.398 530.6 110.398 533.8 117.598 533.8C124.798 533.8 130.798 530.6 130.798 526.8Z" fill="#383838"/>
<path d="M117.998 526.6H117.198C116.198 526.6 115.398 525.8 115.398 524.8V498.6C115.398 497.6 116.198 496.8 117.198 496.8H117.998C118.998 496.8 119.798 497.6 119.798 498.6V524.8C119.598 525.8 118.798 526.6 117.998 526.6Z" fill="#0F0F0F"/>
<path d="M133 503.2C133 498.6 126 495 117.4 495C109 495 102 498.8 102 503.2C102 507.8 109 511.4 117.6 511.4C126 511.6 133 507.8 133 503.2Z" fill="#383838"/>
<path d="M117.598 475.4L132.598 501.4H102.398L117.598 475.4Z" fill="#383838"/>
<path d="M116.598 497.8C120.998 497.8 125.198 497.2 128.398 494L117.598 475.4L106.398 494.6C108.798 497 113.398 497.8 116.598 497.8Z" fill="#0F0F0F"/>
<path d="M131.602 486C131.602 481.8 125.402 478.6 117.602 478.6C109.802 478.6 103.602 482 103.602 486C103.602 490.2 109.802 493.4 117.602 493.4C125.402 493.4 131.602 490 131.602 486Z" fill="#383838"/>
<path d="M117.6 460.8L131.2 484.2H104L117.6 460.8Z" fill="#383838"/>
<path d="M116.602 481C120.602 481 124.402 480.4 127.202 477.6L117.602 460.8L107.602 478.2C109.802 480.2 113.802 481 116.602 481Z" fill="#0F0F0F"/>
<path d="M129.599 470.8C129.599 467.2 124.199 464.4 117.399 464.4C110.799 464.4 105.199 467.2 105.199 470.8C105.199 474.4 110.599 477.2 117.399 477.2C124.199 477.2 129.599 474.4 129.599 470.8Z" fill="#383838"/>
<path d="M117.601 449L129.201 469.4H105.801L117.601 449Z" fill="#383838"/>
</g>
</g>
<g clip-path="url(#clip7_43_7819)">
<path d="M117.273 264.761L106.621 275.412L117.273 286.064L127.924 275.412L117.273 264.761Z" fill="#1C1C1C"/>
<path d="M117.276 275.345L106.625 285.996L117.276 296.648L127.928 285.996L117.276 275.345Z" fill="#1C1C1C"/>
<path d="M131.069 285.984L123.488 293.564L131.069 301.145L138.65 293.564L131.069 285.984Z" fill="#1C1C1C"/>
<path d="M103.585 285.975L96.0039 293.556L103.585 301.136L111.165 293.556L103.585 285.975Z" fill="#1C1C1C"/>
<path d="M131.036 285.969H103.555V301.1H131.036V285.969Z" fill="#1C1C1C"/>
<path d="M119.57 223.814C119.434 223.949 119.299 224.017 119.163 224.153C119.231 224.289 119.366 224.357 119.434 224.424C120.113 225.171 120.791 225.849 121.47 226.596C121.673 226.799 121.945 227.003 122.148 227.206C122.42 227.478 122.623 227.817 122.827 228.156C122.963 228.428 123.166 228.767 123.37 229.106C123.777 229.853 124.252 230.531 124.659 231.278C125.609 233.042 126.762 234.738 127.984 236.367C128.391 236.91 128.798 237.452 129.273 237.995C129.68 238.538 129.816 239.149 129.884 239.827C130.019 241.863 129.544 243.831 129.137 245.798C129.002 245.663 128.866 245.595 128.73 245.459C128.798 245.866 128.866 246.138 128.866 246.477C128.866 246.681 128.866 246.884 128.866 247.088C128.595 248.105 128.323 249.055 128.052 250.073C128.052 250.141 127.984 250.209 127.916 250.413C127.848 249.598 127.78 248.852 127.305 248.173C127.102 248.92 126.966 249.598 126.762 250.345C126.627 250.073 126.559 249.87 126.423 249.598C126.287 249.802 126.152 249.938 126.084 250.141C124.93 252.177 123.37 253.941 121.945 255.773C121.877 255.909 121.673 255.977 121.538 255.977C119.977 256.519 118.484 257.062 116.924 257.673C116.381 257.876 116.313 257.876 116.381 258.487C116.449 258.962 116.177 259.301 115.974 259.641C115.838 259.844 115.838 259.98 115.974 260.184C117.059 262.151 118.145 264.119 119.231 266.019C119.366 266.223 119.502 266.29 119.706 266.29C120.656 266.223 121.538 266.155 122.488 266.155C122.623 266.155 122.759 266.223 122.895 266.29V266.426C122.691 266.358 122.488 266.426 122.284 266.426C121.741 266.494 121.198 266.494 120.656 266.562V266.697C120.927 266.765 121.266 266.833 121.538 266.833C122.284 266.765 122.895 266.969 123.573 267.172C123.709 267.24 123.845 267.376 123.98 267.512L123.913 267.647C122.895 267.58 121.877 267.444 120.859 267.376V267.444C120.995 267.512 121.063 267.58 121.198 267.647C121.538 267.851 121.945 268.122 122.284 268.258C122.691 268.462 122.827 268.801 122.895 269.276C122.623 269.14 122.42 269.005 122.216 268.869C121.198 268.19 119.977 267.919 118.756 267.715C118.281 267.647 117.738 267.647 117.263 267.58C117.195 267.58 117.059 267.58 116.991 267.512C116.856 267.376 116.72 267.444 116.584 267.512C116.313 267.58 115.974 267.58 115.702 267.58C115.499 267.58 115.295 267.444 115.092 267.376C115.363 266.901 115.906 266.765 116.381 266.697C116.72 266.63 116.856 266.494 116.856 266.155C116.856 265.748 116.788 265.34 116.652 265.001C116.381 264.323 116.109 263.644 115.838 262.966C115.567 262.016 115.024 261.201 114.481 260.455C114.074 259.912 113.734 259.301 113.395 258.691C113.327 258.487 113.26 258.284 113.26 258.08C113.26 257.809 113.124 257.673 112.92 257.605C111.97 256.994 110.274 256.994 109.324 257.605C109.12 257.741 109.053 257.876 109.053 258.148C109.12 258.826 109.188 259.505 109.188 260.116C109.188 260.455 109.188 260.726 109.12 261.066C108.985 261.744 108.985 262.287 109.528 262.83C110.885 264.119 112.106 265.544 113.531 266.833C114.549 267.715 115.634 268.462 116.788 269.14C117.263 269.412 117.874 269.48 118.416 269.547C119.299 269.683 120.181 269.683 121.063 269.751C121.334 269.751 121.606 269.954 121.945 270.022C121.538 270.497 121.063 270.158 120.656 270.294C120.248 270.429 119.773 270.226 119.366 270.497C120.588 270.429 121.741 270.701 122.895 271.108V271.244C122.759 271.312 122.623 271.447 122.488 271.379C121.877 271.312 121.266 271.176 120.656 271.108C120.52 271.108 120.316 271.176 120.181 271.176C119.638 271.176 119.027 271.176 118.484 271.176V271.244C118.552 271.312 118.688 271.447 118.756 271.515C119.299 271.99 119.909 272.397 120.384 272.872C120.588 273.008 120.588 273.347 120.723 273.619C119.773 273.279 118.824 273.076 118.145 272.397C117.738 272.058 117.263 271.922 116.856 271.651C115.634 270.837 114.277 270.701 112.852 270.633C112.377 270.633 111.902 270.701 111.427 270.497C111.36 270.429 111.224 270.565 111.088 270.633C110.952 270.769 110.817 270.972 110.681 271.176C110.41 270.022 110.885 269.547 111.97 269.344C112.31 269.276 112.717 269.412 113.056 269.48C113.26 268.801 113.26 268.258 112.717 267.647C111.156 265.815 109.324 264.323 107.356 262.83C107.153 262.694 106.949 262.423 106.813 262.219C106.542 261.812 106.271 261.473 105.863 261.201C105.66 261.066 105.592 260.93 105.66 260.726C105.66 260.251 105.66 259.776 105.66 259.301L105.592 259.234C104.438 260.184 103.76 261.473 102.471 262.287C102.471 262.151 102.471 262.016 102.403 261.812C102.199 261.88 101.996 262.016 101.792 262.083L101.724 262.016C101.996 261.608 102.335 261.201 102.606 260.794C102.539 260.862 102.335 260.862 102.267 260.998C101.928 261.269 101.589 261.541 101.317 261.88C100.978 262.355 100.503 262.287 99.9601 262.355C100.096 262.083 100.164 261.812 100.232 261.541H100.164C99.9601 261.744 99.7566 261.948 99.553 262.151C99.4173 262.287 99.2137 262.355 99.0102 262.423C98.8745 262.491 98.7387 262.423 98.6709 262.491C98.4673 262.626 98.2638 262.558 98.0602 262.355C98.4673 262.151 98.4673 261.812 98.1959 261.473C97.1103 262.016 96.0246 262.626 94.9389 263.169V263.033C95.346 262.219 95.7532 261.473 96.2281 260.658L96.0924 260.591C95.9567 260.726 95.8889 260.794 95.7532 260.93C95.0746 261.744 94.3961 262.491 93.7175 263.305C93.6497 263.373 93.5818 263.441 93.514 263.441C92.9033 263.508 92.3605 263.576 91.7498 263.644C91.8176 262.898 91.9533 262.151 92.4962 261.608C93.3104 260.658 94.0568 259.709 94.8711 258.759C94.9389 258.623 95.0068 258.487 95.0746 258.351C94.7354 258.623 94.3961 258.962 93.989 259.234C92.7676 260.251 91.4784 261.201 90.257 262.219C89.8499 262.491 89.4427 262.694 88.9678 262.762C87.8821 262.762 87.6785 262.694 87 262.287C87.0679 262.219 87.1357 262.151 87.2714 262.083C91.5462 258.894 95.821 255.705 100.096 252.516C100.571 252.177 100.639 251.973 100.435 251.43C100.435 251.362 100.435 251.227 100.503 251.159C100.707 250.82 100.91 250.548 101.046 250.209C101.249 249.87 101.385 249.53 101.792 249.327C101.86 249.259 101.928 249.191 101.996 249.055C102.199 248.105 102.674 247.291 103.149 246.477C103.285 246.273 103.285 246.002 103.353 245.663C102.674 245.866 102.335 246.545 101.521 246.341C101.589 246.206 101.656 246.138 101.724 246.07C102.335 245.391 103.014 244.781 103.556 244.034C103.964 243.559 104.303 243.084 104.71 242.541C104.438 242.338 104.303 242.406 104.235 242.609C104.167 242.881 104.031 242.813 103.828 242.745C104.438 242.066 104.846 241.184 105.66 240.642C105.863 240.506 105.931 240.37 105.931 240.167C105.931 240.031 105.999 239.827 106.135 239.692C106.746 238.809 107.424 237.927 107.967 237.045C108.17 236.706 108.442 236.367 108.849 236.299C109.324 236.163 109.799 235.96 110.274 235.892C110.817 235.824 111.156 235.485 111.36 235.01C111.224 235.01 111.088 235.01 110.885 235.01C111.088 234.806 111.224 234.67 111.36 234.467C111.224 234.467 111.156 234.467 111.02 234.399C111.156 233.992 111.36 233.585 111.495 233.245C111.563 233.042 111.563 232.838 111.495 232.703C111.224 232.16 110.885 231.617 110.545 231.142C109.799 230.124 108.713 229.717 107.492 229.581C107.221 229.581 107.017 229.513 106.746 229.513C106.813 229.174 106.542 229.174 106.271 229.174C105.117 229.174 103.964 229.174 102.81 229.174C102.674 229.174 102.539 229.174 102.403 229.106C102.199 229.039 102.064 228.903 101.86 229.106C101.792 229.174 101.656 229.174 101.453 229.174C101.589 228.903 101.724 228.631 101.86 228.428C102.674 227.139 103.896 226.256 105.388 225.917C106.949 225.578 108.374 224.899 109.731 224.153C110.681 223.678 111.699 223.339 112.785 223.271C113.327 223.203 113.802 223.135 114.277 222.932C114.82 222.999 115.227 222.932 115.567 223.135C116.177 223.407 116.788 223.474 117.399 223.542C118.077 223.61 118.824 223.678 119.57 223.814ZM112.513 225.985C112.852 225.985 113.056 225.714 113.056 225.442C113.056 225.171 112.785 224.899 112.513 224.899C112.174 224.899 111.902 225.171 111.902 225.442C111.97 225.782 112.242 226.053 112.513 225.985Z" fill="#1C1C1C"/>
</g>
<g clip-path="url(#clip8_43_7819)">
<path d="M157.459 338.14C157.459 338.14 159.622 329.115 158.108 325.677C155.514 326.537 154 325.462 154 325.462C154 325.462 154.649 322.454 154.649 319.446C154.649 316.438 154.432 313.644 154.865 313C155.297 312.57 156.811 313 157.243 313.859C157.459 314.504 160.703 320.305 163.946 321.165C162.432 323.529 159.838 325.033 159.838 325.033C159.838 325.033 161.784 332.124 160.486 338.14C157.892 339.429 157.459 338.14 157.459 338.14Z" fill="#040404"/>
<path d="M162.432 338.355C162.432 338.355 165.242 333.198 165.459 330.62C163.729 330.62 163.297 328.901 163.297 328.901C163.297 328.901 164.594 325.463 165.459 323.744C165.891 321.81 166.756 319.446 167.188 319.446C167.621 319.231 167.837 320.091 167.837 320.52C167.837 321.165 168.702 327.396 169.999 329.115C168.486 330.19 166.54 330.834 166.54 330.834C166.54 330.834 165.675 335.562 163.513 339C161.783 339.215 162.432 338.355 162.432 338.355Z" fill="#040404"/>
<path d="M167.189 333.843C167.189 334.273 166.324 334.273 165.243 334.273C164.162 334.058 163.297 333.628 163.297 333.413C163.297 332.983 164.162 332.983 165.243 332.983C166.324 333.198 167.189 333.628 167.189 333.843Z" fill="#040404"/>
</g>
<defs>
<filter id="filter0_f_43_7819" x="-494" y="555" width="883" height="302" filterUnits="userSpaceOnUse" color-interpolation-filters="sRGB">
<feFlood flood-opacity="0" result="BackgroundImageFix"/>
<feBlend mode="normal" in="SourceGraphic" in2="BackgroundImageFix" result="shape"/>
<feGaussianBlur stdDeviation="27" result="effect1_foregroundBlur_43_7819"/>
</filter>
<clipPath id="clip0_43_7819">
<rect width="775" height="194" fill="white" transform="translate(-440 609)"/>
</clipPath>
<clipPath id="clip1_43_7819">
<rect width="51" height="18.6205" fill="white" transform="translate(79 694.308)"/>
</clipPath>
<clipPath id="clip2_43_7819">
<rect width="51" height="43" fill="white" transform="translate(65 384)"/>
</clipPath>
<clipPath id="clip3_43_7819">
<rect width="65" height="76" fill="white" transform="translate(84 280)"/>
</clipPath>
<clipPath id="clip4_43_7819">
<rect width="65" height="76" fill="white" transform="translate(248 373)"/>
</clipPath>
<clipPath id="clip5_43_7819">
<rect width="23" height="67" fill="white" transform="matrix(-1 0 0 1 292 329)"/>
</clipPath>
<clipPath id="clip6_43_7819">
<rect width="31" height="91" fill="white" transform="translate(102 449)"/>
</clipPath>
<clipPath id="clip7_43_7819">
<rect width="51.6369" height="78.1" fill="white" transform="translate(87 223)"/>
</clipPath>
<clipPath id="clip8_43_7819">
<rect width="16" height="26" fill="white" transform="translate(154 313)"/>
</clipPath>
</defs>
</svg>
